<?xml version="1.0" encoding="utf-8"?>
<!-- Generator: Adobe Illustrator 19.0.0, SVG Export Plug-In . SVG Version: 6.00 Build 0)  -->
<svg version="1.1" id="Layer_1" xmlns="http://www.w3.org/2000/svg" xmlns:xlink="http://www.w3.org/1999/xlink" x="0px" y="0px"
	 viewBox="0 0 420 322.9" style="enable-background:new 0 0 420 322.9;" xml:space="preserve">
<style type="text/css">
	.st0{fill:#D1D3D4;}
</style>
<g id="XMLID_2_">
	<path id="XMLID_3_" class="st0" d="M177,0v23.7c-35.6,12.2-63.5,31.4-83.7,57.6C73.1,107.4,63,134.6,63,162.8
		c0,6.1,1,10.7,3.1,13.6c1.4,2,2.9,2.9,4.6,2.9c1.7,0,4.3-1.1,7.7-3.4c10.9-7.4,24.7-11.1,41.4-11.1c19.4,0,36.7,7.5,51.7,22.6
		s22.5,32.9,22.5,53.6c0,21.7-8.6,40.8-25.9,57.2c-17.2,16.5-38.1,24.7-62.7,24.7c-28.7,0-53.4-11.1-74.2-33.3
		C10.4,267.3,0,237.5,0,200.1c0-43.5,14.2-82.5,42.6-117S115.8,21,177,0z M403,0v23.7c-35.6,12.2-63.5,31.4-83.7,57.6
		c-20.2,26.2-30.3,53.4-30.3,81.6c0,6.1,1,10.7,3.1,13.6c1.4,2,2.9,2.9,4.6,2.9c1.7,0,4.3-1.1,7.7-3.4c10.9-7.4,24.7-11.1,41.4-11.1
		c19.4,0,36.7,7.5,51.7,22.6s22.5,32.9,22.5,53.6c0,21.7-8.6,40.8-25.9,57.2c-17.2,16.5-38.1,24.7-62.7,24.7
		c-28.7,0-53.4-11.1-74.2-33.3c-20.8-22.2-31.2-52.1-31.2-89.4c0-43.5,14.2-82.5,42.6-117S341.8,21,403,0z"/>
</g>
</svg>
